%TF.GenerationSoftware,KiCad,Pcbnew,7.0.10*%
%TF.CreationDate,2024-01-11T16:27:45+00:00*%
%TF.ProjectId,TrapdoorGrid_Andrew,54726170-646f-46f7-9247-7269645f416e,rev?*%
%TF.SameCoordinates,Original*%
%TF.FileFunction,Drillmap*%
%TF.FilePolarity,Positive*%
%FSLAX45Y45*%
G04 Gerber Fmt 4.5, Leading zero omitted, Abs format (unit mm)*
G04 Created by KiCad (PCBNEW 7.0.10) date 2024-01-11 16:27:45*
%MOMM*%
%LPD*%
G01*
G04 APERTURE LIST*
%ADD10C,0.100000*%
%ADD11C,0.200000*%
G04 APERTURE END LIST*
D10*
X10000000Y-10000000D02*
X18000000Y-10000000D01*
X18000000Y-10670000D01*
X10000000Y-10670000D01*
X10000000Y-10000000D01*
D11*
X10255777Y-10986484D02*
X10255777Y-10786484D01*
X10255777Y-10786484D02*
X10303396Y-10786484D01*
X10303396Y-10786484D02*
X10331967Y-10796008D01*
X10331967Y-10796008D02*
X10351015Y-10815055D01*
X10351015Y-10815055D02*
X10360539Y-10834103D01*
X10360539Y-10834103D02*
X10370063Y-10872198D01*
X10370063Y-10872198D02*
X10370063Y-10900770D01*
X10370063Y-10900770D02*
X10360539Y-10938865D01*
X10360539Y-10938865D02*
X10351015Y-10957912D01*
X10351015Y-10957912D02*
X10331967Y-10976960D01*
X10331967Y-10976960D02*
X10303396Y-10986484D01*
X10303396Y-10986484D02*
X10255777Y-10986484D01*
X10455777Y-10986484D02*
X10455777Y-10853150D01*
X10455777Y-10891246D02*
X10465301Y-10872198D01*
X10465301Y-10872198D02*
X10474824Y-10862674D01*
X10474824Y-10862674D02*
X10493872Y-10853150D01*
X10493872Y-10853150D02*
X10512920Y-10853150D01*
X10579586Y-10986484D02*
X10579586Y-10853150D01*
X10579586Y-10786484D02*
X10570063Y-10796008D01*
X10570063Y-10796008D02*
X10579586Y-10805531D01*
X10579586Y-10805531D02*
X10589110Y-10796008D01*
X10589110Y-10796008D02*
X10579586Y-10786484D01*
X10579586Y-10786484D02*
X10579586Y-10805531D01*
X10703396Y-10986484D02*
X10684348Y-10976960D01*
X10684348Y-10976960D02*
X10674824Y-10957912D01*
X10674824Y-10957912D02*
X10674824Y-10786484D01*
X10808158Y-10986484D02*
X10789110Y-10976960D01*
X10789110Y-10976960D02*
X10779586Y-10957912D01*
X10779586Y-10957912D02*
X10779586Y-10786484D01*
X11036729Y-10986484D02*
X11036729Y-10786484D01*
X11036729Y-10786484D02*
X11103396Y-10929341D01*
X11103396Y-10929341D02*
X11170063Y-10786484D01*
X11170063Y-10786484D02*
X11170063Y-10986484D01*
X11351015Y-10986484D02*
X11351015Y-10881722D01*
X11351015Y-10881722D02*
X11341491Y-10862674D01*
X11341491Y-10862674D02*
X11322443Y-10853150D01*
X11322443Y-10853150D02*
X11284348Y-10853150D01*
X11284348Y-10853150D02*
X11265301Y-10862674D01*
X11351015Y-10976960D02*
X11331967Y-10986484D01*
X11331967Y-10986484D02*
X11284348Y-10986484D01*
X11284348Y-10986484D02*
X11265301Y-10976960D01*
X11265301Y-10976960D02*
X11255777Y-10957912D01*
X11255777Y-10957912D02*
X11255777Y-10938865D01*
X11255777Y-10938865D02*
X11265301Y-10919817D01*
X11265301Y-10919817D02*
X11284348Y-10910293D01*
X11284348Y-10910293D02*
X11331967Y-10910293D01*
X11331967Y-10910293D02*
X11351015Y-10900770D01*
X11446253Y-10853150D02*
X11446253Y-11053150D01*
X11446253Y-10862674D02*
X11465301Y-10853150D01*
X11465301Y-10853150D02*
X11503396Y-10853150D01*
X11503396Y-10853150D02*
X11522443Y-10862674D01*
X11522443Y-10862674D02*
X11531967Y-10872198D01*
X11531967Y-10872198D02*
X11541491Y-10891246D01*
X11541491Y-10891246D02*
X11541491Y-10948389D01*
X11541491Y-10948389D02*
X11531967Y-10967436D01*
X11531967Y-10967436D02*
X11522443Y-10976960D01*
X11522443Y-10976960D02*
X11503396Y-10986484D01*
X11503396Y-10986484D02*
X11465301Y-10986484D01*
X11465301Y-10986484D02*
X11446253Y-10976960D01*
X11627205Y-10967436D02*
X11636729Y-10976960D01*
X11636729Y-10976960D02*
X11627205Y-10986484D01*
X11627205Y-10986484D02*
X11617682Y-10976960D01*
X11617682Y-10976960D02*
X11627205Y-10967436D01*
X11627205Y-10967436D02*
X11627205Y-10986484D01*
X11627205Y-10862674D02*
X11636729Y-10872198D01*
X11636729Y-10872198D02*
X11627205Y-10881722D01*
X11627205Y-10881722D02*
X11617682Y-10872198D01*
X11617682Y-10872198D02*
X11627205Y-10862674D01*
X11627205Y-10862674D02*
X11627205Y-10881722D01*
M02*
